{
    "asset": {
        "copyright": "(C)2021 Арслан",
        "generator": "maya2glTF v1.2.1 03f669e0d38e",
        "version": "2.0"
    },
    "scenes": [
        {
            "nodes": [
                0
            ]
        }
    ],
    "scene": 0,
    "nodes": [
        {
            "name": "JAR1",
            "children": [
                1
            ],
            "translation": [
                0.0,
                -36.65127182006836,
                -5.852659702301025
            ],
            "scale": [
                4.426876068115234,
                4.270781517028809,
                14.150395393371582
            ]
        },
        {
            "name": "JAR1:PIV",
            "mesh": 0,
            "translation": [
                0.0,
                1.4900000167017425e-7,
                0.4166674017906189
            ]
        }
    ],
    "meshes": [
        {
            "name": "JARShape1",
            "extras": {
                "targetNames": []
            },
            "primitives": [
                {
                    "attributes": {
                        "NORMAL": 1,
                        "POSITION": 2,
                        "TANGENT": 3,
                        "TEXCOORD_0": 4
                    },
                    "indices": 0,
                    "mode": 4,
                    "material": 0
                }
            ]
        }
    ],
    "materials": [
        {
            "name": "lambert1",
            "pbrMetallicRoughness": {
                "baseColorFactor": [
                    0.4000000059604645,
                    0.4000000059604645,
                    0.4000000059604645,
                    1.0
                ],
                "metallicFactor": 0.0,
                "roughnessFactor": 1.0
            }
        }
    ],
    "accessors": [
        {
            "name": "JARShape1#0/indices",
            "bufferView": 0,
            "byteOffset": 0,
            "componentType": 5123,
            "count": 1296,
            "max": [
                567
            ],
            "min": [
                0
            ],
            "type": "SCALAR"
        },
        {
            "name": "JARShape1#0/vertices/NORMAL",
            "bufferView": 1,
            "byteOffset": 0,
            "componentType": 5126,
            "count": 568,
            "max": [
                1.0,
                1.0,
                1.0
            ],
            "min": [
                -1.0,
                -1.0,
                -1.0
            ],
            "type": "VEC3"
        },
        {
            "name": "JARShape1#0/vertices/POSITION",
            "bufferView": 1,
            "byteOffset": 6816,
            "componentType": 5126,
            "count": 568,
            "max": [
                0.5,
                0.4999998211860657,
                0.49999868869781496
            ],
            "min": [
                -0.5,
                -0.5000001192092896,
                -0.5000007152557373
            ],
            "type": "VEC3"
        },
        {
            "name": "JARShape1#0/vertices/TANGENT",
            "bufferView": 2,
            "byteOffset": 0,
            "componentType": 5126,
            "count": 568,
            "max": [
                1.0,
                1.0,
                1.0,
                1.0
            ],
            "min": [
                -1.0,
                -1.0,
                -1.0,
                1.0
            ],
            "type": "VEC4"
        },
        {
            "name": "JARShape1#0/vertices/TEXCOORD_0",
            "bufferView": 3,
            "byteOffset": 0,
            "componentType": 5126,
            "count": 568,
            "max": [
                0.875,
                1.0
            ],
            "min": [
                0.125,
                0.0
            ],
            "type": "VEC2"
        }
    ],
    "bufferViews": [
        {
            "name": "project3/data/indices-2",
            "buffer": 0,
            "byteOffset": 27264,
            "byteLength": 2592,
            "target": 34963
        },
        {
            "name": "project3/data/vertices-12",
            "buffer": 0,
            "byteOffset": 9088,
            "byteLength": 13632,
            "byteStride": 12,
            "target": 34962
        },
        {
            "name": "project3/data/vertices-16",
            "buffer": 0,
            "byteOffset": 0,
            "byteLength": 9088,
            "byteStride": 16,
            "target": 34962
        },
        {
            "name": "project3/data/vertices-8",
            "buffer": 0,
            "byteOffset": 22720,
            "byteLength": 4544,
            "byteStride": 8,
            "target": 34962
        }
    ],
    "buffers": [
        {
            "name": "project3/data",
            "byteLength": 29856,
            "uri": "project30.bin"
        }
    ]
}
